<?xml version="1.0" encoding="UTF-8"?>
<svg version="1.1" viewBox="0 0 976 976" width="1280" height="1280" xmlns="http://www.w3.org/2000/svg">
<path transform="translate(224,102)" d="m0 0h325l27 2 22 3 30 7 26 8 19 7 24 11 21 11 18 11 20 14 16 13 8 7 10 9 18 18 7 8 12 14 12 16 14 21 12 21 14 29 12 31 9 32 6 31 3 32v47l-3 32-8 37-8 28-11 29-10 21-10 19-14 22-12 16-10 13-11 12-7 8-15 15-8 7-14 12-20 15-21 13-21 12-28 13-27 10-29 8-29 6-24 3-23 1-468 1-1-2 6-11 10-16 12-19 12-20 13-21 10-17 12-19 12-20 12-19 15-24 16-26 13-21 14-23 11-18 48-78 13-21 14-23 16-26 11-17 10-17 9-15 4-4 22-1h93l52 1 21 3 13 5 15 8 13 10 10 10 10 15 7 15 4 17 1 20-2 17-5 16-8 16-8 11-13 13-15 10-20 8-18 3-10 1-61 1-5 5-6 9-15 24-9 15-10 17-8 13-4 8-1 3h127l28-3 17-4 20-7 16-8 16-9 15-11 13-11 11-11 11-14 10-15 10-18 9-23 6-25 3-24v-18l-2-21-5-25-5-17-9-20-10-17-12-16-9-10-6-7-11-9-12-10-18-11-16-8-21-8-18-5-21-2-19-1h-190l-6-2-6-7-10-17-13-21-12-20-13-21-19-32-12-19-11-17-12-19-3-5zm101 57v3l15 24 17 28 7 11 3 3 3 1h158l30 2 22 3 21 5 17 6 17 7 16 8 21 13 16 12 10 9 8 7 11 11 9 11 8 10 9 14 10 17 11 23 9 27 5 21 3 19v53l-5 29-7 24-8 21-13 26-9 14-13 17-12 14-15 15-11 9-11 8-13 9-18 10-17 8-19 7-27 7-20 3-17 2-235 1 6-12 28-44 12-19 17-29 8-13 9-14 11-18 12-19 18-30 6-7 2-1 26-1 74-1 13-5 9-7 7-8 4-9 1-4v-22l-7-14-9-9-12-6-7-2-95-1h-23l-20 1-8 11-14 23-32 52-17 28-14 23-15 24-12 20-8 13-17 28-14 22-12 20-14 23-8 13-11 18-17 28-9 16v2l15 1h157l198-1 26-2 36-7 32-10 23-10 16-8 25-14 24-18 14-12 10-9 14-14 7-8 13-16 12-17 9-15 10-18 11-24 7-19 7-25 5-28 3-30v-30l-1-19-4-27-4-20-8-28-10-25-10-20-12-20-12-17-10-13-11-13-12-13-8-8-11-9-12-10-18-13-25-15-16-8-18-8-33-11-31-7-21-3-21-1z" fill="#FEFEFE"/>
</svg>
